# xmcd
#
# Track frame offsets: 
#        150
#        24720
#        42442
#        62122
#        82105
#        99875
#        119410
#        136570
#        158837
#        176897
#        199887
#        216960
#        237872
#        261047
#        282605
#        306402
#        328992
#
# Disc length: 4593 seconds
#
# Revision: 1
# Processed by: cddbd v1.5.2PL0 Copyright (c) Steve Scherf et al.
# Submitted via: ExactAudioCopy v0.99pb3
#
DISCID=0311ef11
DTITLE=Various Artist - Σ' Αγαπώ - Οι Καλύτερες Ελληνικές Μπαλλάντες [CD 1)
DYEAR=2000
DGENRE=Ballad
TTITLE0=Αντώνης Ρέμος - Φιλαράκι
TTITLE1=Νατάσσα Θεοδωρίδου - Μια Φορά Και Σύ Κάνε Κάτι
TTITLE2=Λάμπης Λιβιεράτος - Εκεί Που Δέ Φαντάζεσαι
TTITLE3=’ννα Βίσση - Απόψε Λείπεις Από Δώ
TTITLE4=Νίκος Κουρκούλης - Κάποιες Νύχτες Με Φεγγάρι
TTITLE5=Χρήστος Πάζης - Και Δέ Μπορώ Να φύγω
TTITLE6=Πασχάλης Τερζής - ’σε Με Να Βρώ Τον Εαυτό Μου
TTITLE7=Γιώργος Αλκαίος - ’δειο Σώμα
TTITLE8=Θάνος Καλλίρης - Αυτός Ο Χειμώνας
TTITLE9=Ελένη Πέτα - Ισόγειο
TTITLE10=Καίτη Γαρμπή and Αντώνης Ρέμος - Ασυμφωνία Χαρακτήρων
TTITLE11=Στέλιος Ρόκκος - Όλα Κι Όλα
TTITLE12=Γιώργος Μαζωνάκης - Ένα Κενό
TTITLE13=Αντώνης Βαρδής - Ίσως
TTITLE14=Σάκης Ρουβάς - Αίμα Δάκρυα Και Ιδρώτας
TTITLE15=Διονύσης Σχοινάς - Συγκοινωνούντα Δοχεία
TTITLE16=Σταμάτης Γονίδης - Χθες Το Βράδυ Στ' Όνειρό Μου
EXTD=
EXTT0=
EXTT1=
EXTT2=
EXTT3=
EXTT4=
EXTT5=
EXTT6=
EXTT7=
EXTT8=
EXTT9=
EXTT10=
EXTT11=
EXTT12=
EXTT13=
EXTT14=
EXTT15=
EXTT16=
PLAYORDER=
